<svg xmlns="http://www.w3.org/2000/svg" xmlns:xlink="http://www.w3.org/1999/xlink" width="1080" zoomAndPan="magnify" viewBox="0 0 810 809.999993" height="1080" preserveAspectRatio="xMidYMid meet" version="1.0"><defs><g/><clipPath id="id1"><path d="M 496 301 L 685 301 L 685 324 L 496 324 Z M 496 301 " clip-rule="nonzero"/></clipPath><clipPath id="id2"><path d="M 497.328125 299.046875 L 684.53125 310.5 L 683.46875 327.8125 L 496.269531 316.363281 Z M 497.328125 299.046875 " clip-rule="nonzero"/></clipPath><clipPath id="id3"><path d="M 497.328125 299.046875 L 684.53125 310.5 L 683.46875 327.8125 L 496.269531 316.363281 Z M 497.328125 299.046875 " clip-rule="nonzero"/></clipPath></defs><rect x="-81" width="972" fill="rgb(55.288696%, 34.509277%, 17.248535%)" y="-80.999999" height="971.999992" fill-opacity="1"/><rect x="-81" width="972" fill="rgb(100%, 100%, 100%)" y="-80.999999" height="971.999992" fill-opacity="1"/><rect x="-81" width="972" fill="rgb(55.288696%, 34.509277%, 17.248535%)" y="-80.999999" height="971.999992" fill-opacity="1"/><g fill="rgb(87.449646%, 79.60968%, 70.199585%)" fill-opacity="1"><g transform="translate(318.866354, 536.858254)"><g><path d="M 213.289062 -234.917969 C 142.746094 -234.917969 121.453125 -136.09375 115.128906 -59.5625 L 39.265625 -234.917969 L 11.644531 -234.917969 L 11.644531 0 L 13.640625 0 L 13.640625 -228.929688 L 22.960938 -206.96875 L 112.800781 0 L 116.128906 0 C 116.128906 -60.558594 121.453125 -198.980469 188 -226.933594 L 188 0 L 213.289062 0 Z M 213.289062 -234.917969 "/></g></g></g><g fill="rgb(87.449646%, 79.60968%, 70.199585%)" fill-opacity="1"><g transform="translate(233.051329, 537.341419)"><g><path d="M 152.007812 -49.121094 C 139.730469 -15.597656 122.800781 -2.65625 94.257812 -2.65625 L 38.167969 -2.65625 L 38.167969 -234.320312 L 11.617188 -234.320312 L 11.617188 0 L 144.042969 0 Z M 152.007812 -49.121094 "/></g></g></g><g clip-path="url(#id1)"><g clip-path="url(#id2)"><g clip-path="url(#id3)"><path fill="rgb(87.449646%, 79.60968%, 70.199585%)" d="M 683.28125 314.730469 C 654.828125 321.625 631.679688 324.523438 613.832031 323.429688 C 604.414062 322.855469 593.59375 320.929688 581.367188 317.648438 C 579.542969 317.214844 569.769531 314.308594 552.050781 308.941406 C 541.667969 305.777344 534.007812 304.042969 529.066406 303.742188 C 519.121094 303.132812 509.007812 306.40625 498.71875 313.566406 C 498.445312 313.746094 498.171875 313.828125 497.910156 313.808594 C 496.921875 313.75 496.457031 313.269531 496.511719 312.363281 C 496.53125 312.039062 496.714844 311.757812 497.058594 311.519531 C 507.507812 303.914062 518.953125 300.492188 531.402344 301.253906 C 539.898438 301.773438 548.933594 303.203125 558.507812 305.542969 C 566.96875 307.683594 575.398438 309.851562 583.789062 312.054688 C 594.484375 314.460938 605.296875 315.996094 616.230469 316.667969 C 641.519531 318.214844 663.65625 316.710938 682.644531 312.160156 C 683.847656 311.910156 684.414062 312.398438 684.335938 313.628906 C 684.300781 314.210938 683.949219 314.578125 683.28125 314.730469 Z M 683.28125 314.730469 " fill-opacity="1" fill-rule="nonzero"/></g></g></g><g fill="rgb(87.449646%, 79.60968%, 70.199585%)" fill-opacity="1"><g transform="translate(686.275639, 317.539926)"><g><path d="M 16.164062 -18.636719 C 11.03125 -18.636719 6.65625 -14.074219 6.65625 -9.507812 C 6.65625 -4.183594 11.03125 0 16.164062 0 C 21.871094 0 25.863281 -4.183594 25.863281 -9.507812 C 25.863281 -14.074219 21.871094 -18.636719 16.164062 -18.636719 Z M 16.164062 -18.636719 "/></g></g></g></svg>